<svg width="26" height="26" viewBox="0 0 26 26" fill="none" xmlns="http://www.w3.org/2000/svg">
<path d="M3.25 5.41666V4.60416C3.03451 4.60416 2.82785 4.68976 2.67548 4.84213C2.5231 4.99451 2.4375 5.20117 2.4375 5.41666H3.25ZM22.75 5.41666H23.5625C23.5625 5.20117 23.4769 4.99451 23.3245 4.84213C23.1722 4.68976 22.9655 4.60416 22.75 4.60416V5.41666ZM3.25 6.22916H22.75V4.60416H3.25V6.22916ZM21.9375 5.41666V18.4167H23.5625V5.41666H21.9375ZM20.5833 19.7708H5.41667V21.3958H20.5833V19.7708ZM4.0625 18.4167V5.41666H2.4375V18.4167H4.0625ZM5.41667 19.7708C4.66917 19.7708 4.0625 19.1642 4.0625 18.4167H2.4375C2.4375 19.2068 2.75138 19.9645 3.31008 20.5232C3.86878 21.0819 4.62654 21.3958 5.41667 21.3958V19.7708ZM21.9375 18.4167C21.9375 19.1642 21.3308 19.7708 20.5833 19.7708V21.3958C21.3735 21.3958 22.1312 21.0819 22.6899 20.5232C23.2486 19.9645 23.5625 19.2068 23.5625 18.4167H21.9375Z" fill="white"/>
<path d="M3.25 5.41666L13 15.1667L22.75 5.41666" stroke="white" stroke-width="1.5" stroke-linecap="round" stroke-linejoin="round"/>
</svg>
