<svg width="128" height="68" viewBox="0 0 128 68" fill="none" xmlns="http://www.w3.org/2000/svg">
<rect x="0.0136719" y="0.900635" width="127.507" height="66.2246" fill="#5A7947"/>
<path d="M11.2583 18.6875H9.25544C9.24123 18.5217 9.20335 18.3714 9.1418 18.2365C9.08262 18.1015 8.99976 17.9855 8.89322 17.8884C8.78906 17.789 8.6624 17.7133 8.51325 17.6612C8.3641 17.6067 8.19483 17.5795 8.00544 17.5795C7.674 17.5795 7.39346 17.66 7.16382 17.821C6.93655 17.982 6.76372 18.2128 6.64535 18.5134C6.52935 18.8141 6.47135 19.1751 6.47135 19.5965C6.47135 20.0416 6.53053 20.4145 6.6489 20.7152C6.76964 21.0134 6.94365 21.2384 7.17092 21.3899C7.39819 21.539 7.67163 21.6136 7.99123 21.6136C8.17353 21.6136 8.33688 21.5911 8.48129 21.5461C8.6257 21.4988 8.75118 21.4313 8.85771 21.3437C8.96424 21.2561 9.05066 21.1508 9.11694 21.0277C9.1856 20.9022 9.23176 20.7613 9.25544 20.6051L11.2583 20.6193C11.2346 20.927 11.1482 21.2407 10.999 21.5603C10.8499 21.8776 10.638 22.1711 10.3634 22.441C10.0911 22.7085 9.75378 22.924 9.35132 23.0873C8.94886 23.2507 8.48129 23.3323 7.94862 23.3323C7.28101 23.3323 6.68205 23.1891 6.15174 22.9027C5.62381 22.6162 5.20596 22.1948 4.89819 21.6384C4.5928 21.0821 4.4401 20.4015 4.4401 19.5965C4.4401 18.7869 4.59635 18.1051 4.90885 17.5511C5.22135 16.9947 5.64275 16.5745 6.17305 16.2904C6.70335 16.004 7.29521 15.8608 7.94862 15.8608C8.4079 15.8608 8.83049 15.9235 9.21638 16.049C9.60227 16.1744 9.94081 16.3579 10.232 16.5994C10.5232 16.8385 10.7576 17.1332 10.9351 17.4836C11.1127 17.834 11.2204 18.2353 11.2583 18.6875ZM19.8995 19.5965C19.8995 20.4062 19.7421 21.0892 19.4272 21.6456C19.1123 22.1995 18.6874 22.6197 18.1523 22.9062C17.6173 23.1903 17.0207 23.3323 16.3626 23.3323C15.6997 23.3323 15.1007 23.1891 14.5657 22.9027C14.033 22.6138 13.6093 22.1924 13.2944 21.6384C12.9819 21.0821 12.8256 20.4015 12.8256 19.5965C12.8256 18.7869 12.9819 18.1051 13.2944 17.5511C13.6093 16.9947 14.033 16.5745 14.5657 16.2904C15.1007 16.004 15.6997 15.8608 16.3626 15.8608C17.0207 15.8608 17.6173 16.004 18.1523 16.2904C18.6874 16.5745 19.1123 16.9947 19.4272 17.5511C19.7421 18.1051 19.8995 18.7869 19.8995 19.5965ZM17.8683 19.5965C17.8683 19.1609 17.8103 18.794 17.6943 18.4957C17.5806 18.195 17.4113 17.9678 17.1864 17.8139C16.9639 17.6576 16.6893 17.5795 16.3626 17.5795C16.0359 17.5795 15.7601 17.6576 15.5352 17.8139C15.3126 17.9678 15.1434 18.195 15.0273 18.4957C14.9137 18.794 14.8569 19.1609 14.8569 19.5965C14.8569 20.0322 14.9137 20.4003 15.0273 20.7009C15.1434 20.9992 15.3126 21.2265 15.5352 21.3828C15.7601 21.5367 16.0359 21.6136 16.3626 21.6136C16.6893 21.6136 16.9639 21.5367 17.1864 21.3828C17.4113 21.2265 17.5806 20.9992 17.6943 20.7009C17.8103 20.4003 17.8683 20.0322 17.8683 19.5965ZM27.8057 15.9602V23.2329H26.1579L23.5301 19.4119H23.4875V23.2329H21.513V15.9602H23.1892L25.7744 19.767H25.8312V15.9602H27.8057ZM29.2407 17.5511V15.9602H35.5618V17.5511H33.3743V23.2329H31.4282V17.5511H29.2407ZM37.9761 23.2329H35.8454L38.246 15.9602H40.9448L43.3454 23.2329H41.2147L39.6238 17.963H39.567L37.9761 23.2329ZM37.5783 20.3636H41.584V21.8409H37.5783V20.3636ZM51.1938 18.6875H49.191C49.1768 18.5217 49.1389 18.3714 49.0773 18.2365C49.0182 18.1015 48.9353 17.9855 48.8288 17.8884C48.7246 17.789 48.5979 17.7133 48.4488 17.6612C48.2996 17.6067 48.1304 17.5795 47.941 17.5795C47.6095 17.5795 47.329 17.66 47.0994 17.821C46.8721 17.982 46.6993 18.2128 46.5809 18.5134C46.4649 18.8141 46.4069 19.1751 46.4069 19.5965C46.4069 20.0416 46.4661 20.4145 46.5845 20.7152C46.7052 21.0134 46.8792 21.2384 47.1065 21.3899C47.3337 21.539 47.6072 21.6136 47.9268 21.6136C48.1091 21.6136 48.2724 21.5911 48.4168 21.5461C48.5612 21.4988 48.6867 21.4313 48.7933 21.3437C48.8998 21.2561 48.9862 21.1508 49.0525 21.0277C49.1211 20.9022 49.1673 20.7613 49.191 20.6051L51.1938 20.6193C51.1702 20.927 51.0837 21.2407 50.9346 21.5603C50.7854 21.8776 50.5736 22.1711 50.2989 22.441C50.0267 22.7085 49.6893 22.924 49.2869 23.0873C48.8844 23.2507 48.4168 23.3323 47.8842 23.3323C47.2166 23.3323 46.6176 23.1891 46.0873 22.9027C45.5594 22.6162 45.1415 22.1948 44.8337 21.6384C44.5283 21.0821 44.3756 20.4015 44.3756 19.5965C44.3756 18.7869 44.5319 18.1051 44.8444 17.5511C45.1569 16.9947 45.5783 16.5745 46.1086 16.2904C46.6389 16.004 47.2308 15.8608 47.8842 15.8608C48.3434 15.8608 48.766 15.9235 49.1519 16.049C49.5378 16.1744 49.8764 16.3579 50.1675 16.5994C50.4587 16.8385 50.6931 17.1332 50.8707 17.4836C51.0482 17.834 51.1559 18.2353 51.1938 18.6875ZM52.5907 17.5511V15.9602H58.9118V17.5511H56.7243V23.2329H54.7782V17.5511H52.5907ZM67.351 15.9602H69.3254V20.6193C69.3254 21.1733 69.1929 21.6527 68.9277 22.0575C68.6649 22.4599 68.298 22.7713 67.8268 22.9914C67.3557 23.2092 66.8089 23.3181 66.1862 23.3181C65.5589 23.3181 65.0096 23.2092 64.5385 22.9914C64.0674 22.7713 63.7004 22.4599 63.4376 22.0575C63.1772 21.6527 63.047 21.1733 63.047 20.6193V15.9602H65.0215V20.4488C65.0215 20.6737 65.0712 20.875 65.1706 21.0525C65.27 21.2277 65.4073 21.365 65.5825 21.4644C65.7601 21.5639 65.9613 21.6136 66.1862 21.6136C66.4135 21.6136 66.6147 21.5639 66.7899 21.4644C66.9651 21.365 67.1024 21.2277 67.2018 21.0525C67.3013 20.875 67.351 20.6737 67.351 20.4488V15.9602ZM74.8843 18.2329C74.8653 17.9962 74.7766 17.8115 74.6179 17.6789C74.4617 17.5464 74.2238 17.4801 73.9042 17.4801C73.7006 17.4801 73.5337 17.5049 73.4035 17.5546C73.2756 17.602 73.1809 17.6671 73.1194 17.75C73.0578 17.8328 73.0258 17.9275 73.0235 18.034C73.0187 18.1216 73.0341 18.2009 73.0696 18.272C73.1075 18.3406 73.1667 18.4034 73.2472 18.4602C73.3277 18.5146 73.4307 18.5643 73.5562 18.6093C73.6816 18.6543 73.8308 18.6946 74.0036 18.7301L74.6002 18.8579C75.0026 18.9431 75.3471 19.0556 75.6336 19.1953C75.92 19.3349 76.1544 19.4995 76.3367 19.6889C76.519 19.8759 76.6527 20.0866 76.738 20.321C76.8256 20.5554 76.8705 20.811 76.8729 21.088C76.8705 21.5662 76.751 21.9711 76.5142 22.3025C76.2775 22.634 75.939 22.8861 75.4986 23.0589C75.0606 23.2317 74.5339 23.3181 73.9184 23.3181C73.2863 23.3181 72.7347 23.2246 72.2635 23.0376C71.7948 22.8506 71.4302 22.5629 71.1698 22.1747C70.9117 21.784 70.7815 21.2845 70.7792 20.6761H72.6542C72.666 20.8986 72.7216 21.0857 72.8211 21.2372C72.9205 21.3887 73.0602 21.5035 73.2401 21.5816C73.4224 21.6598 73.639 21.6988 73.89 21.6988C74.1007 21.6988 74.277 21.6728 74.4191 21.6207C74.5611 21.5686 74.6688 21.4964 74.7422 21.4041C74.8156 21.3117 74.8535 21.2064 74.8559 21.088C74.8535 20.9768 74.8168 20.8797 74.7458 20.7968C74.6771 20.7116 74.5635 20.6358 74.4049 20.5696C74.2463 20.5009 74.032 20.437 73.7621 20.3778L73.0377 20.2215C72.3937 20.0819 71.8859 19.8487 71.5142 19.522C71.1449 19.1929 70.9615 18.7443 70.9638 18.1761C70.9615 17.7144 71.0846 17.3108 71.3331 16.9652C71.5841 16.6171 71.9309 16.3461 72.3736 16.1519C72.8187 15.9578 73.3289 15.8608 73.9042 15.8608C74.4913 15.8608 74.9991 15.959 75.4276 16.1555C75.8561 16.352 76.1864 16.629 76.4184 16.9865C76.6527 17.3416 76.7711 17.7571 76.7735 18.2329H74.8843ZM87.3088 15.9602V23.2329H85.661L83.0332 19.4119H82.9906V23.2329H81.0162V15.9602H82.6923L85.2775 19.767H85.3343V15.9602H87.3088ZM95.9882 19.5965C95.9882 20.4062 95.8307 21.0892 95.5159 21.6456C95.201 22.1995 94.7761 22.6197 94.241 22.9062C93.706 23.1903 93.1094 23.3323 92.4512 23.3323C91.7884 23.3323 91.1894 23.1891 90.6544 22.9027C90.1217 22.6138 89.6979 22.1924 89.3831 21.6384C89.0706 21.0821 88.9143 20.4015 88.9143 19.5965C88.9143 18.7869 89.0706 18.1051 89.3831 17.5511C89.6979 16.9947 90.1217 16.5745 90.6544 16.2904C91.1894 16.004 91.7884 15.8608 92.4512 15.8608C93.1094 15.8608 93.706 16.004 94.241 16.2904C94.7761 16.5745 95.201 16.9947 95.5159 17.5511C95.8307 18.1051 95.9882 18.7869 95.9882 19.5965ZM93.9569 19.5965C93.9569 19.1609 93.8989 18.794 93.7829 18.4957C93.6693 18.195 93.5 17.9678 93.2751 17.8139C93.0526 17.6576 92.778 17.5795 92.4512 17.5795C92.1245 17.5795 91.8487 17.6576 91.6238 17.8139C91.4013 17.9678 91.232 18.195 91.116 18.4957C91.0024 18.794 90.9456 19.1609 90.9456 19.5965C90.9456 20.0322 91.0024 20.4003 91.116 20.7009C91.232 20.9992 91.4013 21.2265 91.6238 21.3828C91.8487 21.5367 92.1245 21.6136 92.4512 21.6136C92.778 21.6136 93.0526 21.5367 93.2751 21.3828C93.5 21.2265 93.6693 20.9992 93.7829 20.7009C93.8989 20.4003 93.9569 20.0322 93.9569 19.5965ZM98.9893 23.2329L96.8444 15.9602H99.0461L100.04 20.4346H100.097L101.276 15.9602H103.009L104.188 20.4488H104.245L105.239 15.9602H107.441L105.296 23.2329H103.407L102.171 19.1704H102.114L100.879 23.2329H98.9893Z" fill="#FAFFF7"/>
<path d="M13.8063 40.2294C13.9113 40.2819 13.9901 40.4 13.9901 40.5312C13.9901 40.5443 13.9901 40.5706 13.9901 40.5968L13.6751 41.9615C13.6357 42.1059 13.5176 42.1978 13.3733 42.1978C10.0008 42.1978 7.28442 39.4814 7.28442 36.1089C7.28442 35.9645 7.37628 35.8464 7.52063 35.8071L8.88538 35.4921C8.91162 35.4921 8.93787 35.479 8.95099 35.479C9.08221 35.479 9.20032 35.5577 9.25281 35.6758L9.88269 37.1456C9.89581 37.1849 9.90894 37.2243 9.90894 37.2637C9.90894 37.3687 9.85645 37.4605 9.79083 37.513L8.99036 38.1691C9.47589 39.1927 10.2895 40.0063 11.313 40.4918L11.9692 39.6913C12.0217 39.6257 12.1135 39.5732 12.2054 39.5732C12.2579 39.5732 12.2972 39.5864 12.3366 39.5995L13.8063 40.2294Z" fill="#FAFFF7"/>
<path d="M20.3968 40.3079V36.3761H21.2888V40.3079H20.3968ZM18.8769 38.788V37.896H22.8087V38.788H18.8769ZM26.4188 35.4216V41.2397H25.3648V36.4471H25.3307L23.9699 37.3165V36.3505L25.416 35.4216H26.4188ZM30.1475 38.3307C30.1475 37.6204 30.2412 36.968 30.4287 36.3733C30.6181 35.7767 30.8994 35.2255 31.2725 34.7199H32.2412C32.0973 34.9074 31.9628 35.1375 31.8378 35.4102C31.7128 35.681 31.6039 35.9784 31.5111 36.3022C31.4202 36.6242 31.3483 36.9585 31.2952 37.3051C31.2441 37.6517 31.2185 37.9935 31.2185 38.3307C31.2185 38.7795 31.263 39.2341 31.352 39.6943C31.4429 40.1545 31.5651 40.5816 31.7185 40.9755C31.8738 41.3676 32.0481 41.6886 32.2412 41.9386H31.2725C30.8994 41.4329 30.6181 40.8827 30.4287 40.288C30.2412 39.6915 30.1475 39.039 30.1475 38.3307ZM33.0289 41.2397V40.4784L35.0488 38.4983C35.242 38.3032 35.4029 38.1299 35.5317 37.9784C35.6605 37.8269 35.7571 37.6801 35.8215 37.538C35.8859 37.396 35.9181 37.2445 35.9181 37.0835C35.9181 36.8998 35.8764 36.7426 35.7931 36.6119C35.7098 36.4793 35.5952 36.3771 35.4493 36.3051C35.3035 36.2331 35.1378 36.1971 34.9522 36.1971C34.7609 36.1971 34.5933 36.2369 34.4493 36.3165C34.3054 36.3941 34.1937 36.5049 34.1141 36.6488C34.0365 36.7928 33.9976 36.9642 33.9976 37.163H32.9948C32.9948 36.7937 33.0791 36.4727 33.2476 36.2C33.4162 35.9272 33.6482 35.7161 33.9437 35.5665C34.241 35.4168 34.5819 35.342 34.9664 35.342C35.3565 35.342 35.6993 35.4149 35.9948 35.5608C36.2903 35.7066 36.5194 35.9064 36.6823 36.1602C36.8471 36.414 36.9295 36.7038 36.9295 37.0295C36.9295 37.2473 36.8878 37.4613 36.8045 37.6716C36.7211 37.8818 36.5743 38.1147 36.3641 38.3704C36.1558 38.6261 35.8632 38.9358 35.4863 39.2994L34.4834 40.3193V40.3591H37.0175V41.2397H33.0289ZM37.7675 40.1602V39.3221L40.2363 35.4216H40.9351V36.6147H40.509L38.8471 39.2483V39.2937H42.2931V40.1602H37.7675ZM40.5431 41.2397V39.9045L40.5545 39.5295V35.4216H41.5488V41.2397H40.5431ZM45.3513 41.3505C44.8835 41.3505 44.482 41.2322 44.1468 40.9954C43.8135 40.7568 43.5568 40.413 43.3769 39.9642C43.1989 39.5134 43.1099 38.9708 43.1099 38.3363C43.1117 37.7019 43.2017 37.1621 43.3797 36.717C43.5597 36.27 43.8163 35.9291 44.1496 35.6943C44.4849 35.4594 44.8854 35.342 45.3513 35.342C45.8172 35.342 46.2178 35.4594 46.553 35.6943C46.8883 35.9291 47.1449 36.27 47.3229 36.717C47.5028 37.164 47.5928 37.7038 47.5928 38.3363C47.5928 38.9727 47.5028 39.5163 47.3229 39.967C47.1449 40.4159 46.8883 40.7587 46.553 40.9954C46.2197 41.2322 45.8191 41.3505 45.3513 41.3505ZM45.3513 40.4613C45.715 40.4613 46.0019 40.2824 46.2121 39.9244C46.4242 39.5646 46.5303 39.0352 46.5303 38.3363C46.5303 37.8742 46.482 37.486 46.3854 37.1716C46.2888 36.8572 46.1525 36.6204 45.9763 36.4613C45.8002 36.3004 45.5919 36.2199 45.3513 36.2199C44.9896 36.2199 44.7036 36.3998 44.4934 36.7596C44.2831 37.1176 44.1771 37.6432 44.1752 38.3363C44.1733 38.8004 44.2197 39.1905 44.3144 39.5068C44.411 39.8231 44.5474 40.0617 44.7235 40.2227C44.8996 40.3818 45.1089 40.4613 45.3513 40.4613ZM50.3833 38.3307C50.3833 39.039 50.2886 39.6915 50.0992 40.288C49.9117 40.8827 49.6314 41.4329 49.2583 41.9386H48.2895C48.4354 41.7511 48.5698 41.5219 48.6929 41.2511C48.8179 40.9803 48.9259 40.6829 49.0168 40.3591C49.1096 40.0352 49.1816 39.7 49.2327 39.3534C49.2858 39.0068 49.3123 38.6659 49.3123 38.3307C49.3123 37.8818 49.2668 37.4272 49.1759 36.967C49.0869 36.5068 48.9647 36.0797 48.8094 35.6858C48.656 35.2918 48.4827 34.9699 48.2895 34.7199H49.2583C49.6314 35.2255 49.9117 35.7767 50.0992 36.3733C50.2886 36.968 50.3833 37.6204 50.3833 38.3307ZM55.7377 41.3193C55.3153 41.3193 54.9403 41.2483 54.6127 41.1062C54.2869 40.9642 54.0313 40.77 53.8456 40.5238C53.6619 40.2757 53.571 39.9945 53.5729 39.6801C53.571 39.4358 53.6241 39.2113 53.732 39.0068C53.84 38.8022 53.9858 38.6318 54.1695 38.4954C54.3551 38.3572 54.5616 38.2691 54.7888 38.2312V38.1915C54.4896 38.1252 54.2472 37.9727 54.0616 37.7341C53.8778 37.4935 53.7869 37.2161 53.7888 36.9017C53.7869 36.6024 53.8703 36.3354 54.0388 36.1005C54.2074 35.8657 54.4385 35.681 54.732 35.5466C55.0256 35.4102 55.3608 35.342 55.7377 35.342C56.1108 35.342 56.4432 35.4102 56.7349 35.5466C57.0284 35.681 57.2595 35.8657 57.428 36.1005C57.5985 36.3354 57.6837 36.6024 57.6837 36.9017C57.6837 37.2161 57.59 37.4935 57.4025 37.7341C57.2169 37.9727 56.9773 38.1252 56.6837 38.1915V38.2312C56.911 38.2691 57.1155 38.3572 57.2974 38.4954C57.4811 38.6318 57.6269 38.8022 57.7349 39.0068C57.8447 39.2113 57.8996 39.4358 57.8996 39.6801C57.8996 39.9945 57.8068 40.2757 57.6212 40.5238C57.4356 40.77 57.1799 40.9642 56.8542 41.1062C56.5303 41.2483 56.1581 41.3193 55.7377 41.3193ZM55.7377 40.5068C55.9555 40.5068 56.1449 40.4699 56.3059 40.396C56.4669 40.3202 56.5919 40.2142 56.6809 40.0778C56.7699 39.9415 56.8153 39.7843 56.8172 39.6062C56.8153 39.4206 56.767 39.2568 56.6724 39.1147C56.5795 38.9708 56.4517 38.8581 56.2888 38.7767C56.1278 38.6952 55.9441 38.6545 55.7377 38.6545C55.5294 38.6545 55.3438 38.6952 55.1809 38.7767C55.018 38.8581 54.8892 38.9708 54.7945 39.1147C54.7017 39.2568 54.6563 39.4206 54.6581 39.6062C54.6563 39.7843 54.6998 39.9415 54.7888 40.0778C54.8778 40.2123 55.0028 40.3174 55.1638 40.3932C55.3267 40.4689 55.518 40.5068 55.7377 40.5068ZM55.7377 37.8562C55.9157 37.8562 56.0729 37.8202 56.2093 37.7483C56.3475 37.6763 56.4564 37.5759 56.536 37.4471C56.6155 37.3183 56.6563 37.1697 56.6581 37.0011C56.6563 36.8344 56.6165 36.6886 56.5388 36.5636C56.4612 36.4367 56.3532 36.3392 56.215 36.271C56.0767 36.2009 55.9176 36.1659 55.7377 36.1659C55.554 36.1659 55.392 36.2009 55.2519 36.271C55.1136 36.3392 55.0057 36.4367 54.928 36.5636C54.8523 36.6886 54.8153 36.8344 54.8172 37.0011C54.8153 37.1697 54.8532 37.3183 54.9309 37.4471C55.0104 37.574 55.1193 37.6744 55.2576 37.7483C55.3977 37.8202 55.5578 37.8562 55.7377 37.8562ZM61.2001 35.4216V41.2397H60.1461V36.4471H60.112L58.7512 37.3165V36.3505L60.1972 35.4216H61.2001ZM64.7455 41.3193C64.3232 41.3193 63.9482 41.2483 63.6205 41.1062C63.2947 40.9642 63.0391 40.77 62.8535 40.5238C62.6697 40.2757 62.5788 39.9945 62.5807 39.6801C62.5788 39.4358 62.6319 39.2113 62.7398 39.0068C62.8478 38.8022 62.9936 38.6318 63.1773 38.4954C63.3629 38.3572 63.5694 38.2691 63.7966 38.2312V38.1915C63.4974 38.1252 63.255 37.9727 63.0694 37.7341C62.8857 37.4935 62.7947 37.2161 62.7966 36.9017C62.7947 36.6024 62.8781 36.3354 63.0466 36.1005C63.2152 35.8657 63.4463 35.681 63.7398 35.5466C64.0334 35.4102 64.3686 35.342 64.7455 35.342C65.1186 35.342 65.451 35.4102 65.7427 35.5466C66.0362 35.681 66.2673 35.8657 66.4358 36.1005C66.6063 36.3354 66.6915 36.6024 66.6915 36.9017C66.6915 37.2161 66.5978 37.4935 66.4103 37.7341C66.2247 37.9727 65.9851 38.1252 65.6915 38.1915V38.2312C65.9188 38.2691 66.1233 38.3572 66.3052 38.4954C66.4889 38.6318 66.6347 38.8022 66.7427 39.0068C66.8525 39.2113 66.9074 39.4358 66.9074 39.6801C66.9074 39.9945 66.8146 40.2757 66.629 40.5238C66.4434 40.77 66.1877 40.9642 65.862 41.1062C65.5381 41.2483 65.166 41.3193 64.7455 41.3193ZM64.7455 40.5068C64.9633 40.5068 65.1527 40.4699 65.3137 40.396C65.4747 40.3202 65.5997 40.2142 65.6887 40.0778C65.7777 39.9415 65.8232 39.7843 65.8251 39.6062C65.8232 39.4206 65.7749 39.2568 65.6802 39.1147C65.5874 38.9708 65.4595 38.8581 65.2966 38.7767C65.1357 38.6952 64.9519 38.6545 64.7455 38.6545C64.5372 38.6545 64.3516 38.6952 64.1887 38.7767C64.0258 38.8581 63.897 38.9708 63.8023 39.1147C63.7095 39.2568 63.6641 39.4206 63.666 39.6062C63.6641 39.7843 63.7076 39.9415 63.7966 40.0778C63.8857 40.2123 64.0107 40.3174 64.1716 40.3932C64.3345 40.4689 64.5258 40.5068 64.7455 40.5068ZM64.7455 37.8562C64.9235 37.8562 65.0807 37.8202 65.2171 37.7483C65.3554 37.6763 65.4643 37.5759 65.5438 37.4471C65.6233 37.3183 65.6641 37.1697 65.666 37.0011C65.6641 36.8344 65.6243 36.6886 65.5466 36.5636C65.469 36.4367 65.361 36.3392 65.2228 36.271C65.0845 36.2009 64.9254 36.1659 64.7455 36.1659C64.5618 36.1659 64.3999 36.2009 64.2597 36.271C64.1215 36.3392 64.0135 36.4367 63.9358 36.5636C63.8601 36.6886 63.8232 36.8344 63.8251 37.0011C63.8232 37.1697 63.861 37.3183 63.9387 37.4471C64.0182 37.574 64.1271 37.6744 64.2654 37.7483C64.4055 37.8202 64.5656 37.8562 64.7455 37.8562ZM70.4976 37.9074V38.754H67.8783V37.9074H70.4976ZM73.5907 41.3193C73.2119 41.3193 72.8729 41.2483 72.5736 41.1062C72.2744 40.9623 72.0367 40.7653 71.8606 40.5153C71.6863 40.2653 71.5935 39.9793 71.5822 39.6574H72.6049C72.6238 39.896 72.727 40.0911 72.9145 40.2426C73.102 40.3922 73.3274 40.467 73.5907 40.467C73.7971 40.467 73.9808 40.4197 74.1418 40.325C74.3028 40.2303 74.4297 40.0986 74.5225 39.9301C74.6153 39.7615 74.6608 39.5693 74.6589 39.3534C74.6608 39.1337 74.6144 38.9386 74.5197 38.7682C74.425 38.5977 74.2952 38.4642 74.1304 38.3676C73.9657 38.2691 73.7763 38.2199 73.5623 38.2199C73.388 38.218 73.2166 38.2502 73.0481 38.3165C72.8795 38.3827 72.746 38.4699 72.6475 38.5778L71.6958 38.4216L71.9998 35.4216H75.3748V36.3022H72.8719L72.7043 37.8449H72.7384C72.8464 37.718 72.9988 37.6129 73.1958 37.5295C73.3928 37.4443 73.6087 37.4017 73.8435 37.4017C74.1958 37.4017 74.5102 37.485 74.7867 37.6517C75.0632 37.8165 75.281 38.0437 75.4401 38.3335C75.5992 38.6233 75.6787 38.9547 75.6787 39.3278C75.6787 39.7123 75.5897 40.0551 75.4117 40.3562C75.2356 40.6555 74.9903 40.8913 74.6759 41.0636C74.3634 41.2341 74.0017 41.3193 73.5907 41.3193ZM78.7611 41.3193C78.4827 41.3174 78.2109 41.2691 77.9458 41.1744C77.6806 41.0778 77.442 40.9216 77.2299 40.7057C77.0178 40.4879 76.8492 40.199 76.7242 39.8392C76.5992 39.4774 76.5376 39.0295 76.5395 38.4954C76.5395 37.9973 76.5926 37.5532 76.6986 37.163C76.8047 36.7729 76.9572 36.4433 77.156 36.1744C77.3549 35.9036 77.5945 35.6971 77.8748 35.5551C78.157 35.413 78.4723 35.342 78.8208 35.342C79.1863 35.342 79.5102 35.414 79.7924 35.5579C80.0765 35.7019 80.3056 35.8988 80.4799 36.1488C80.6541 36.3969 80.7621 36.6772 80.8037 36.9897H79.7668C79.7138 36.7663 79.6049 36.5882 79.4401 36.4557C79.2772 36.3212 79.0708 36.254 78.8208 36.254C78.4174 36.254 78.1068 36.4291 77.889 36.7795C77.6731 37.1299 77.5642 37.611 77.5623 38.2227H77.602C77.6948 38.056 77.8151 37.913 77.9628 37.7937C78.1106 37.6744 78.2772 37.5825 78.4628 37.5182C78.6503 37.4519 78.8483 37.4187 79.0566 37.4187C79.3975 37.4187 79.7034 37.5002 79.9742 37.663C80.2469 37.8259 80.4628 38.0504 80.6219 38.3363C80.781 38.6204 80.8596 38.9462 80.8577 39.3136C80.8596 39.6962 80.7725 40.0399 80.5964 40.3449C80.4202 40.6479 80.175 40.8865 79.8606 41.0608C79.5462 41.235 79.1797 41.3212 78.7611 41.3193ZM78.7554 40.467C78.9619 40.467 79.1465 40.4168 79.3094 40.3165C79.4723 40.2161 79.6011 40.0807 79.6958 39.9102C79.7905 39.7397 79.8369 39.5485 79.835 39.3363C79.8369 39.128 79.7914 38.9396 79.6986 38.771C79.6077 38.6024 79.4818 38.4689 79.3208 38.3704C79.1598 38.2719 78.9761 38.2227 78.7697 38.2227C78.6162 38.2227 78.4733 38.2521 78.3407 38.3108C78.2081 38.3695 78.0926 38.4509 77.9941 38.5551C77.8956 38.6574 77.8179 38.7767 77.7611 38.913C77.7062 39.0475 77.6778 39.1915 77.6759 39.3449C77.6778 39.5475 77.7251 39.7341 77.8179 39.9045C77.9108 40.075 78.0386 40.2113 78.2015 40.3136C78.3644 40.4159 78.549 40.467 78.7554 40.467ZM81.8179 41.2397V40.4784L83.8378 38.4983C84.031 38.3032 84.192 38.1299 84.3208 37.9784C84.4496 37.8269 84.5462 37.6801 84.6106 37.538C84.675 37.396 84.7072 37.2445 84.7072 37.0835C84.7072 36.8998 84.6655 36.7426 84.5822 36.6119C84.4988 36.4793 84.3842 36.3771 84.2384 36.3051C84.0926 36.2331 83.9269 36.1971 83.7412 36.1971C83.55 36.1971 83.3823 36.2369 83.2384 36.3165C83.0945 36.3941 82.9827 36.5049 82.9032 36.6488C82.8255 36.7928 82.7867 36.9642 82.7867 37.163H81.7839C81.7839 36.7937 81.8681 36.4727 82.0367 36.2C82.2053 35.9272 82.4373 35.7161 82.7327 35.5665C83.0301 35.4168 83.371 35.342 83.7554 35.342C84.1456 35.342 84.4884 35.4149 84.7839 35.5608C85.0793 35.7066 85.3085 35.9064 85.4714 36.1602C85.6361 36.414 85.7185 36.7038 85.7185 37.0295C85.7185 37.2473 85.6769 37.4613 85.5935 37.6716C85.5102 37.8818 85.3634 38.1147 85.1532 38.3704C84.9448 38.6261 84.6522 38.9358 84.2753 39.2994L83.2725 40.3193V40.3591H85.8066V41.2397H81.8179ZM88.8549 41.3193C88.4325 41.3193 88.0575 41.2483 87.7299 41.1062C87.4041 40.9642 87.1484 40.77 86.9628 40.5238C86.7791 40.2757 86.6882 39.9945 86.6901 39.6801C86.6882 39.4358 86.7412 39.2113 86.8492 39.0068C86.9572 38.8022 87.103 38.6318 87.2867 38.4954C87.4723 38.3572 87.6787 38.2691 87.906 38.2312V38.1915C87.6068 38.1252 87.3644 37.9727 87.1787 37.7341C86.995 37.4935 86.9041 37.2161 86.906 36.9017C86.9041 36.6024 86.9875 36.3354 87.156 36.1005C87.3246 35.8657 87.5556 35.681 87.8492 35.5466C88.1428 35.4102 88.478 35.342 88.8549 35.342C89.228 35.342 89.5604 35.4102 89.852 35.5466C90.1456 35.681 90.3767 35.8657 90.5452 36.1005C90.7157 36.3354 90.8009 36.6024 90.8009 36.9017C90.8009 37.2161 90.7072 37.4935 90.5197 37.7341C90.334 37.9727 90.0945 38.1252 89.8009 38.1915V38.2312C90.0282 38.2691 90.2327 38.3572 90.4145 38.4954C90.5983 38.6318 90.7441 38.8022 90.852 39.0068C90.9619 39.2113 91.0168 39.4358 91.0168 39.6801C91.0168 39.9945 90.924 40.2757 90.7384 40.5238C90.5528 40.77 90.2971 40.9642 89.9714 41.1062C89.6475 41.2483 89.2753 41.3193 88.8549 41.3193ZM88.8549 40.5068C89.0727 40.5068 89.2621 40.4699 89.4231 40.396C89.584 40.3202 89.709 40.2142 89.7981 40.0778C89.8871 39.9415 89.9325 39.7843 89.9344 39.6062C89.9325 39.4206 89.8842 39.2568 89.7895 39.1147C89.6967 38.9708 89.5689 38.8581 89.406 38.7767C89.245 38.6952 89.0613 38.6545 88.8549 38.6545C88.6465 38.6545 88.4609 38.6952 88.2981 38.7767C88.1352 38.8581 88.0064 38.9708 87.9117 39.1147C87.8189 39.2568 87.7734 39.4206 87.7753 39.6062C87.7734 39.7843 87.817 39.9415 87.906 40.0778C87.995 40.2123 88.12 40.3174 88.281 40.3932C88.4439 40.4689 88.6352 40.5068 88.8549 40.5068ZM88.8549 37.8562C89.0329 37.8562 89.1901 37.8202 89.3265 37.7483C89.4647 37.6763 89.5736 37.5759 89.6532 37.4471C89.7327 37.3183 89.7734 37.1697 89.7753 37.0011C89.7734 36.8344 89.7337 36.6886 89.656 36.5636C89.5784 36.4367 89.4704 36.3392 89.3322 36.271C89.1939 36.2009 89.0348 36.1659 88.8549 36.1659C88.6712 36.1659 88.5092 36.2009 88.3691 36.271C88.2308 36.3392 88.1229 36.4367 88.0452 36.5636C87.9695 36.6886 87.9325 36.8344 87.9344 37.0011C87.9325 37.1697 87.9704 37.3183 88.0481 37.4471C88.1276 37.574 88.2365 37.6744 88.3748 37.7483C88.5149 37.8202 88.675 37.8562 88.8549 37.8562Z" fill="#FAFFF7"/>
<path d="M8.25495 48.7119V48.4692C8.1906 48.4692 8.12889 48.4948 8.08339 48.5403C8.03789 48.5858 8.01233 48.6475 8.01233 48.7119H8.25495ZM14.0779 48.7119H14.3205C14.3205 48.6475 14.2949 48.5858 14.2494 48.5403C14.2039 48.4948 14.1422 48.4692 14.0779 48.4692V48.7119ZM8.25495 48.9545H14.0779V48.4692H8.25495V48.9545ZM13.8352 48.7119V52.5938H14.3205V48.7119H13.8352ZM13.4309 52.9982H8.90194V53.4834H13.4309V52.9982ZM8.49757 52.5938V48.7119H8.01233V52.5938H8.49757ZM8.90194 52.9982C8.67873 52.9982 8.49757 52.817 8.49757 52.5938H8.01233C8.01233 52.8297 8.10606 53.056 8.27289 53.2229C8.43973 53.3897 8.666 53.4834 8.90194 53.4834V52.9982ZM13.8352 52.5938C13.8352 52.817 13.6541 52.9982 13.4309 52.9982V53.4834C13.6668 53.4834 13.8931 53.3897 14.0599 53.2229C14.2268 53.056 14.3205 52.8297 14.3205 52.5938H13.8352Z" fill="#FAFFF7"/>
<path d="M8.255 48.7119L11.1665 51.6234L14.0779 48.7119" stroke="#FAFFF7" stroke-width="0.447917" stroke-linecap="round" stroke-linejoin="round"/>
<path d="M21.1762 54.0506C20.795 54.0506 20.4677 53.967 20.1943 53.7996C19.9225 53.6322 19.7129 53.401 19.5654 53.106C19.4196 52.8094 19.3466 52.468 19.3466 52.0819C19.3466 51.6941 19.4212 51.3519 19.5704 51.0553C19.7195 50.757 19.93 50.525 20.2017 50.3592C20.4752 50.1919 20.7983 50.1082 21.1712 50.1082C21.4811 50.1082 21.7554 50.1653 21.994 50.2797C22.2343 50.3924 22.4257 50.5523 22.5682 50.7595C22.7107 50.9649 22.7919 51.2052 22.8118 51.4803H21.9517C21.9169 51.2964 21.8341 51.1431 21.7032 51.0205C21.5739 50.8962 21.4007 50.834 21.1836 50.834C20.9997 50.834 20.8381 50.8837 20.6989 50.9832C20.5597 51.081 20.4512 51.2218 20.3733 51.4058C20.297 51.5897 20.2589 51.8101 20.2589 52.067C20.2589 52.3272 20.297 52.5509 20.3733 52.7381C20.4495 52.9238 20.5564 53.0671 20.6939 53.1682C20.8331 53.2676 20.9964 53.3173 21.1836 53.3173C21.3162 53.3173 21.4347 53.2925 21.5391 53.2428C21.6452 53.1914 21.7338 53.1176 21.8051 53.0215C21.8763 52.9254 21.9252 52.8086 21.9517 52.671H22.8118C22.7903 52.9412 22.7107 53.1806 22.5732 53.3894C22.4357 53.5966 22.2484 53.759 22.0114 53.8766C21.7744 53.9926 21.496 54.0506 21.1762 54.0506ZM24.6495 54.0531C24.4075 54.0531 24.1896 54.01 23.9957 53.9239C23.8035 53.836 23.651 53.7068 23.5383 53.5361C23.4273 53.3654 23.3718 53.1549 23.3718 52.9047C23.3718 52.6893 23.4115 52.5111 23.4911 52.3703C23.5706 52.2294 23.6792 52.1167 23.8167 52.0322C23.9543 51.9477 24.1092 51.8839 24.2816 51.8408C24.4556 51.796 24.6354 51.7637 24.821 51.7438C25.0447 51.7206 25.2262 51.6999 25.3654 51.6817C25.5046 51.6618 25.6057 51.632 25.6686 51.5922C25.7333 51.5508 25.7656 51.487 25.7656 51.4008V51.3859C25.7656 51.1986 25.7101 51.0536 25.599 50.9509C25.488 50.8481 25.3281 50.7967 25.1193 50.7967C24.8989 50.7967 24.724 50.8448 24.5948 50.9409C24.4672 51.037 24.381 51.1506 24.3362 51.2815L23.496 51.1622C23.5623 50.9301 23.6717 50.7363 23.8242 50.5805C23.9766 50.423 24.1631 50.3054 24.3835 50.2275C24.6039 50.1479 24.8475 50.1082 25.1143 50.1082C25.2983 50.1082 25.4814 50.1297 25.6637 50.1728C25.846 50.2159 26.0125 50.2872 26.1633 50.3866C26.3141 50.4844 26.4351 50.6178 26.5262 50.7868C26.619 50.9558 26.6654 51.1671 26.6654 51.4207V53.9761H25.8004V53.4516H25.7706C25.7159 53.5576 25.6388 53.6571 25.5394 53.7499C25.4416 53.841 25.3181 53.9148 25.169 53.9711C25.0215 54.0258 24.8483 54.0531 24.6495 54.0531ZM24.8831 53.3919C25.0638 53.3919 25.2204 53.3563 25.3529 53.285C25.4855 53.2121 25.5874 53.116 25.6587 52.9967C25.7316 52.8774 25.7681 52.7473 25.7681 52.6064V52.1565C25.7399 52.1797 25.6918 52.2012 25.6239 52.2211C25.5576 52.241 25.483 52.2584 25.4002 52.2733C25.3173 52.2882 25.2353 52.3015 25.1541 52.3131C25.0729 52.3247 25.0024 52.3346 24.9428 52.3429C24.8085 52.3611 24.6884 52.391 24.5823 52.4324C24.4763 52.4738 24.3926 52.5318 24.3313 52.6064C24.27 52.6793 24.2393 52.7738 24.2393 52.8898C24.2393 53.0555 24.2998 53.1806 24.4208 53.2651C24.5417 53.3497 24.6959 53.3919 24.8831 53.3919ZM27.5703 53.9761V50.1579H28.4428V50.7943H28.4826C28.5522 50.5738 28.6715 50.404 28.8405 50.2847C29.0112 50.1637 29.2059 50.1032 29.4247 50.1032C29.4744 50.1032 29.5299 50.1057 29.5912 50.1107C29.6542 50.114 29.7064 50.1198 29.7478 50.1281V50.9558C29.7097 50.9426 29.6492 50.931 29.5664 50.921C29.4852 50.9094 29.4064 50.9036 29.3302 50.9036C29.1661 50.9036 29.0187 50.9393 28.8877 51.0105C28.7585 51.0801 28.6566 51.1771 28.582 51.3014C28.5074 51.4256 28.4701 51.569 28.4701 51.7314V53.9761H27.5703ZM31.8788 54.0506C31.496 54.0506 31.1653 53.9711 30.8869 53.812C30.6102 53.6513 30.3972 53.4242 30.2481 53.1309C30.0989 52.8359 30.0244 52.4887 30.0244 52.0894C30.0244 51.6966 30.0989 51.3519 30.2481 51.0553C30.3989 50.757 30.6094 50.525 30.8795 50.3592C31.1496 50.1919 31.467 50.1082 31.8315 50.1082C32.0669 50.1082 32.2889 50.1463 32.4977 50.2225C32.7082 50.2971 32.8938 50.4131 33.0546 50.5705C33.217 50.728 33.3446 50.9285 33.4374 51.1721C33.5302 51.414 33.5766 51.7024 33.5766 52.0372V52.3131H30.447V51.7065H32.714C32.7123 51.5342 32.6751 51.3809 32.6021 51.2467C32.5292 51.1108 32.4273 51.0039 32.2964 50.926C32.1671 50.8481 32.0163 50.8092 31.844 50.8092C31.66 50.8092 31.4984 50.8539 31.3592 50.9434C31.22 51.0312 31.1115 51.1472 31.0336 51.2914C30.9574 51.4339 30.9184 51.5905 30.9168 51.7612V52.2907C30.9168 52.5128 30.9574 52.7033 31.0386 52.8624C31.1198 53.0199 31.2333 53.1408 31.3791 53.2254C31.525 53.3082 31.6957 53.3497 31.8912 53.3497C32.0221 53.3497 32.1406 53.3314 32.2467 53.295C32.3527 53.2569 32.4447 53.2013 32.5226 53.1284C32.6005 53.0555 32.6593 52.9652 32.6991 52.8575L33.5393 52.9519C33.4863 53.174 33.3852 53.3679 33.236 53.5336C33.0885 53.6977 32.8996 53.8253 32.6693 53.9164C32.4389 54.0059 32.1754 54.0506 31.8788 54.0506ZM37.5371 55.4029C37.015 55.4029 36.551 55.3317 36.145 55.1891C35.7407 55.0483 35.3993 54.8403 35.1209 54.5652C34.8425 54.2918 34.6312 53.9578 34.487 53.5634C34.3428 53.169 34.2699 52.7183 34.2682 52.2112C34.2699 51.7157 34.3436 51.269 34.4895 50.8713C34.6353 50.4719 34.8483 50.1305 35.1283 49.8472C35.4084 49.5621 35.7506 49.3434 36.155 49.1909C36.5593 49.0385 37.0192 48.9622 37.5346 48.9622C38.0201 48.9622 38.4502 49.036 38.8247 49.1835C39.2009 49.331 39.5182 49.5364 39.7768 49.7999C40.0369 50.0618 40.2333 50.3684 40.3659 50.7197C40.5001 51.0694 40.5672 51.4488 40.5672 51.8582C40.5672 52.1416 40.5457 52.41 40.5026 52.6636C40.4595 52.9155 40.3858 53.1392 40.2814 53.3347C40.1786 53.5303 40.0386 53.6861 39.8613 53.8021C39.684 53.9164 39.4619 53.9786 39.1951 53.9885C39.0277 53.9968 38.8811 53.981 38.7551 53.9413C38.6292 53.9015 38.5272 53.8394 38.4494 53.7548C38.3731 53.6687 38.3251 53.5634 38.3052 53.4391H38.2753C38.2372 53.5386 38.1651 53.6297 38.0591 53.7126C37.9547 53.7938 37.8254 53.8576 37.6713 53.904C37.5172 53.9487 37.3457 53.967 37.1567 53.9587C36.9546 53.9487 36.7673 53.9023 36.5949 53.8195C36.4243 53.735 36.2751 53.6173 36.1475 53.4665C36.0216 53.314 35.9238 53.1301 35.8542 52.9146C35.7846 52.6992 35.7498 52.4548 35.7498 52.1813C35.7498 51.9145 35.7879 51.6792 35.8641 51.4754C35.9404 51.2715 36.0423 51.0975 36.1699 50.9533C36.2991 50.8092 36.445 50.6965 36.6074 50.6153C36.7698 50.5324 36.9372 50.4794 37.1095 50.4562C37.2885 50.4313 37.4567 50.4338 37.6141 50.4636C37.7716 50.4935 37.9025 50.539 38.0069 50.6004C38.1129 50.6617 38.1792 50.7288 38.2057 50.8017H38.2405V50.5233H38.9341V52.8898C38.9357 53.0141 38.9656 53.1143 39.0236 53.1906C39.0832 53.2668 39.1661 53.3049 39.2722 53.3049C39.4047 53.3049 39.5116 53.2527 39.5928 53.1483C39.6757 53.0422 39.7353 52.8798 39.7718 52.6611C39.8099 52.4407 39.8281 52.159 39.8265 51.8159C39.8281 51.5342 39.7909 51.279 39.7146 51.0503C39.64 50.8199 39.534 50.6178 39.3964 50.4438C39.2589 50.2698 39.094 50.1247 38.9018 50.0087C38.7112 49.8911 38.4991 49.8024 38.2654 49.7428C38.0317 49.6831 37.7823 49.6533 37.5172 49.6533C37.1112 49.6533 36.754 49.7154 36.4458 49.8397C36.1376 49.9623 35.879 50.1372 35.6702 50.3642C35.4631 50.5912 35.3065 50.8605 35.2004 51.1721C35.096 51.482 35.0438 51.825 35.0438 52.2012C35.0438 52.6039 35.0985 52.961 35.2079 53.2726C35.3189 53.5825 35.4813 53.8435 35.6951 54.0556C35.9089 54.2677 36.1732 54.4285 36.4881 54.5379C36.8046 54.6472 37.1683 54.7019 37.5793 54.7019C37.7682 54.7019 37.953 54.687 38.1337 54.6572C38.3143 54.6274 38.4767 54.5926 38.6209 54.5528C38.765 54.513 38.8761 54.4782 38.954 54.4484L39.1653 55.0798C39.0625 55.1328 38.9233 55.1842 38.7476 55.2339C38.5736 55.2836 38.3814 55.3242 38.1709 55.3557C37.9621 55.3872 37.7508 55.4029 37.5371 55.4029ZM37.3631 53.2453C37.5735 53.2453 37.7417 53.2046 37.8677 53.1234C37.9936 53.0406 38.0839 52.918 38.1386 52.7555C38.1933 52.5931 38.2198 52.391 38.2182 52.149C38.2182 51.9236 38.19 51.7389 38.1337 51.5947C38.0773 51.4505 37.987 51.3436 37.8627 51.274C37.7384 51.2044 37.5735 51.1696 37.368 51.1696C37.1824 51.1696 37.0242 51.2119 36.8932 51.2964C36.764 51.3809 36.6646 51.4977 36.5949 51.6469C36.527 51.7944 36.493 51.9626 36.493 52.1515C36.493 52.3404 36.5204 52.5186 36.5751 52.6859C36.6314 52.8517 36.7226 52.9867 36.8485 53.0911C36.9761 53.1939 37.1476 53.2453 37.3631 53.2453ZM42.7479 54.0432C42.448 54.0432 42.1795 53.9661 41.9425 53.812C41.7055 53.6579 41.5183 53.4342 41.3807 53.1408C41.2432 52.8475 41.1744 52.4912 41.1744 52.072C41.1744 51.6477 41.244 51.2898 41.3832 50.9981C41.5241 50.7048 41.7138 50.4835 41.9525 50.3344C42.1911 50.1836 42.4571 50.1082 42.7504 50.1082C42.9741 50.1082 43.1581 50.1463 43.3022 50.2225C43.4464 50.2971 43.5608 50.3874 43.6453 50.4935C43.7298 50.5979 43.7953 50.6965 43.8417 50.7893H43.879V48.8852H44.7813V53.9761H43.8964V53.3745H43.8417C43.7953 53.4673 43.7281 53.5659 43.6403 53.6703C43.5525 53.7731 43.4365 53.8609 43.2923 53.9338C43.1481 54.0067 42.9667 54.0432 42.7479 54.0432ZM42.999 53.3049C43.1896 53.3049 43.352 53.2535 43.4862 53.1508C43.6204 53.0464 43.7223 52.9014 43.7919 52.7158C43.8616 52.5302 43.8964 52.3139 43.8964 52.067C43.8964 51.8201 43.8616 51.6055 43.7919 51.4232C43.724 51.2409 43.6229 51.0992 43.4887 50.9981C43.3561 50.897 43.1929 50.8465 42.999 50.8465C42.7985 50.8465 42.6311 50.8987 42.4968 51.0031C42.3626 51.1075 42.2615 51.2516 42.1936 51.4356C42.1256 51.6195 42.0917 51.83 42.0917 52.067C42.0917 52.3056 42.1256 52.5186 42.1936 52.7058C42.2632 52.8914 42.3651 53.0381 42.4993 53.1458C42.6352 53.2519 42.8018 53.3049 42.999 53.3049ZM47.4057 54.0506C47.0328 54.0506 46.7097 53.9686 46.4362 53.8046C46.1628 53.6405 45.9507 53.411 45.7998 53.116C45.6507 52.821 45.5761 52.4763 45.5761 52.0819C45.5761 51.6875 45.6507 51.342 45.7998 51.0453C45.9507 50.7487 46.1628 50.5183 46.4362 50.3543C46.7097 50.1902 47.0328 50.1082 47.4057 50.1082C47.7785 50.1082 48.1017 50.1902 48.3751 50.3543C48.6486 50.5183 48.8599 50.7487 49.009 51.0453C49.1598 51.342 49.2352 51.6875 49.2352 52.0819C49.2352 52.4763 49.1598 52.821 49.009 53.116C48.8599 53.411 48.6486 53.6405 48.3751 53.8046C48.1017 53.9686 47.7785 54.0506 47.4057 54.0506ZM47.4106 53.3298C47.6128 53.3298 47.7819 53.2743 47.9177 53.1632C48.0536 53.0505 48.1547 52.8997 48.221 52.7108C48.289 52.5219 48.3229 52.3114 48.3229 52.0794C48.3229 51.8457 48.289 51.6345 48.221 51.4455C48.1547 51.255 48.0536 51.1033 47.9177 50.9906C47.7819 50.8779 47.6128 50.8216 47.4106 50.8216C47.2035 50.8216 47.0311 50.8779 46.8936 50.9906C46.7577 51.1033 46.6558 51.255 46.5878 51.4455C46.5216 51.6345 46.4884 51.8457 46.4884 52.0794C46.4884 52.3114 46.5216 52.5219 46.5878 52.7108C46.6558 52.8997 46.7577 53.0505 46.8936 53.1632C47.0311 53.2743 47.2035 53.3298 47.4106 53.3298ZM51.6645 54.0506C51.2916 54.0506 50.9684 53.9686 50.695 53.8046C50.4216 53.6405 50.2094 53.411 50.0586 53.116C49.9095 52.821 49.8349 52.4763 49.8349 52.0819C49.8349 51.6875 49.9095 51.342 50.0586 51.0453C50.2094 50.7487 50.4216 50.5183 50.695 50.3543C50.9684 50.1902 51.2916 50.1082 51.6645 50.1082C52.0373 50.1082 52.3605 50.1902 52.6339 50.3543C52.9074 50.5183 53.1187 50.7487 53.2678 51.0453C53.4186 51.342 53.494 51.6875 53.494 52.0819C53.494 52.4763 53.4186 52.821 53.2678 53.116C53.1187 53.411 52.9074 53.6405 52.6339 53.8046C52.3605 53.9686 52.0373 54.0506 51.6645 54.0506ZM51.6694 53.3298C51.8716 53.3298 52.0406 53.2743 52.1765 53.1632C52.3124 53.0505 52.4135 52.8997 52.4798 52.7108C52.5477 52.5219 52.5817 52.3114 52.5817 52.0794C52.5817 51.8457 52.5477 51.6345 52.4798 51.4455C52.4135 51.255 52.3124 51.1033 52.1765 50.9906C52.0406 50.8779 51.8716 50.8216 51.6694 50.8216C51.4623 50.8216 51.2899 50.8779 51.1524 50.9906C51.0165 51.1033 50.9146 51.255 50.8466 51.4455C50.7803 51.6345 50.7472 51.8457 50.7472 52.0794C50.7472 52.3114 50.7803 52.5219 50.8466 52.7108C50.9146 52.8997 51.0165 53.0505 51.1524 53.1632C51.2899 53.2743 51.4623 53.3298 51.6694 53.3298ZM54.2975 53.9761V48.8852H55.1974V50.7893H55.2347C55.2811 50.6965 55.3465 50.5979 55.4311 50.4935C55.5156 50.3874 55.6299 50.2971 55.7741 50.2225C55.9183 50.1463 56.1022 50.1082 56.3259 50.1082C56.6209 50.1082 56.8869 50.1836 57.1239 50.3344C57.3625 50.4835 57.5514 50.7048 57.6907 50.9981C57.8315 51.2898 57.9019 51.6477 57.9019 52.072C57.9019 52.4912 57.8332 52.8475 57.6956 53.1408C57.5581 53.4342 57.3708 53.6579 57.1338 53.812C56.8969 53.9661 56.6284 54.0432 56.3284 54.0432C56.1097 54.0432 55.9282 54.0067 55.784 53.9338C55.6399 53.8609 55.5239 53.7731 55.436 53.6703C55.3499 53.5659 55.2827 53.4673 55.2347 53.3745H55.1825V53.9761H54.2975ZM55.18 52.067C55.18 52.3139 55.2148 52.5302 55.2844 52.7158C55.3557 52.9014 55.4576 53.0464 55.5902 53.1508C55.7244 53.2535 55.8868 53.3049 56.0774 53.3049C56.2762 53.3049 56.4428 53.2519 56.577 53.1458C56.7112 53.0381 56.8123 52.8914 56.8803 52.7058C56.9499 52.5186 56.9847 52.3056 56.9847 52.067C56.9847 51.83 56.9507 51.6195 56.8828 51.4356C56.8148 51.2516 56.7137 51.1075 56.5795 51.0031C56.4453 50.8987 56.2779 50.8465 56.0774 50.8465C55.8851 50.8465 55.7219 50.897 55.5877 50.9981C55.4534 51.0992 55.3515 51.2409 55.2819 51.4232C55.214 51.6055 55.18 51.8201 55.18 52.067ZM60.3324 54.0506C59.9513 54.0506 59.624 53.967 59.3505 53.7996C59.0788 53.6322 58.8691 53.401 58.7216 53.106C58.5758 52.8094 58.5029 52.468 58.5029 52.0819C58.5029 51.6941 58.5775 51.3519 58.7266 51.0553C58.8758 50.757 59.0862 50.525 59.358 50.3592C59.6314 50.1919 59.9546 50.1082 60.3275 50.1082C60.6374 50.1082 60.9116 50.1653 61.1503 50.2797C61.3906 50.3924 61.582 50.5523 61.7245 50.7595C61.867 50.9649 61.9482 51.2052 61.9681 51.4803H61.108C61.0732 51.2964 60.9903 51.1431 60.8594 51.0205C60.7302 50.8962 60.557 50.834 60.3399 50.834C60.1559 50.834 59.9944 50.8837 59.8552 50.9832C59.716 51.081 59.6074 51.2218 59.5295 51.4058C59.4533 51.5897 59.4152 51.8101 59.4152 52.067C59.4152 52.3272 59.4533 52.5509 59.5295 52.7381C59.6057 52.9238 59.7126 53.0671 59.8502 53.1682C59.9894 53.2676 60.1526 53.3173 60.3399 53.3173C60.4725 53.3173 60.591 53.2925 60.6954 53.2428C60.8014 53.1914 60.8901 53.1176 60.9613 53.0215C61.0326 52.9254 61.0815 52.8086 61.108 52.671H61.9681C61.9465 52.9412 61.867 53.1806 61.7294 53.3894C61.5919 53.5966 61.4046 53.759 61.1677 53.8766C60.9307 53.9926 60.6523 54.0506 60.3324 54.0506ZM64.3725 54.0506C63.9996 54.0506 63.6764 53.9686 63.403 53.8046C63.1296 53.6405 62.9175 53.411 62.7666 53.116C62.6175 52.821 62.5429 52.4763 62.5429 52.0819C62.5429 51.6875 62.6175 51.342 62.7666 51.0453C62.9175 50.7487 63.1296 50.5183 63.403 50.3543C63.6764 50.1902 63.9996 50.1082 64.3725 50.1082C64.7453 50.1082 65.0685 50.1902 65.3419 50.3543C65.6154 50.5183 65.8267 50.7487 65.9758 51.0453C66.1266 51.342 66.202 51.6875 66.202 52.0819C66.202 52.4763 66.1266 52.821 65.9758 53.116C65.8267 53.411 65.6154 53.6405 65.3419 53.8046C65.0685 53.9686 64.7453 54.0506 64.3725 54.0506ZM64.3774 53.3298C64.5796 53.3298 64.7487 53.2743 64.8845 53.1632C65.0204 53.0505 65.1215 52.8997 65.1878 52.7108C65.2558 52.5219 65.2897 52.3114 65.2897 52.0794C65.2897 51.8457 65.2558 51.6345 65.1878 51.4455C65.1215 51.255 65.0204 51.1033 64.8845 50.9906C64.7487 50.8779 64.5796 50.8216 64.3774 50.8216C64.1703 50.8216 63.9979 50.8779 63.8604 50.9906C63.7245 51.1033 63.6226 51.255 63.5546 51.4455C63.4884 51.6345 63.4552 51.8457 63.4552 52.0794C63.4552 52.3114 63.4884 52.5219 63.5546 52.7108C63.6226 52.8997 63.7245 53.0505 63.8604 53.1632C63.9979 53.2743 64.1703 53.3298 64.3774 53.3298ZM66.9658 53.9761V50.1579H67.8259V50.8067H67.8706C67.9502 50.5879 68.0819 50.4172 68.2658 50.2946C68.4498 50.1703 68.6694 50.1082 68.9246 50.1082C69.1831 50.1082 69.401 50.1711 69.5783 50.2971C69.7573 50.4214 69.8833 50.5912 69.9562 50.8067H69.996C70.0805 50.5946 70.223 50.4255 70.4235 50.2996C70.6257 50.172 70.8652 50.1082 71.1419 50.1082C71.4932 50.1082 71.7799 50.2192 72.002 50.4413C72.2241 50.6633 72.3351 50.9873 72.3351 51.4132V53.9761H71.4328V51.5524C71.4328 51.3154 71.3698 51.1423 71.2438 51.0329C71.1179 50.9219 70.9638 50.8663 70.7815 50.8663C70.5644 50.8663 70.3945 50.9343 70.2719 51.0702C70.1509 51.2044 70.0904 51.3792 70.0904 51.5947V53.9761H69.208V51.5151C69.208 51.3179 69.1483 51.1605 69.029 51.0428C68.9113 50.9252 68.7572 50.8663 68.5666 50.8663C68.4374 50.8663 68.3197 50.8995 68.2136 50.9658C68.1076 51.0304 68.0231 51.1224 67.9601 51.2417C67.8971 51.3594 67.8656 51.4969 67.8656 51.6543V53.9761H66.9658ZM73.248 53.9761V50.1579H74.1081V50.8067H74.1528C74.2324 50.5879 74.3641 50.4172 74.5481 50.2946C74.732 50.1703 74.9516 50.1082 75.2068 50.1082C75.4653 50.1082 75.6833 50.1711 75.8606 50.2971C76.0396 50.4214 76.1655 50.5912 76.2384 50.8067H76.2782C76.3627 50.5946 76.5052 50.4255 76.7057 50.2996C76.9079 50.172 77.1474 50.1082 77.4241 50.1082C77.7755 50.1082 78.0622 50.2192 78.2842 50.4413C78.5063 50.6633 78.6173 50.9873 78.6173 51.4132V53.9761H77.715V51.5524C77.715 51.3154 77.652 51.1423 77.5261 51.0329C77.4001 50.9219 77.246 50.8663 77.0637 50.8663C76.8466 50.8663 76.6767 50.9343 76.5541 51.0702C76.4331 51.2044 76.3726 51.3792 76.3726 51.5947V53.9761H75.4902V51.5151C75.4902 51.3179 75.4305 51.1605 75.3112 51.0428C75.1936 50.9252 75.0394 50.8663 74.8489 50.8663C74.7196 50.8663 74.6019 50.8995 74.4959 50.9658C74.3898 51.0304 74.3053 51.1224 74.2423 51.2417C74.1793 51.3594 74.1479 51.4969 74.1479 51.6543V53.9761H73.248ZM81.9638 52.3703V50.1579H82.8637V53.9761H81.9912V53.2975H81.9514C81.8652 53.5112 81.7235 53.6861 81.5263 53.822C81.3308 53.9578 81.0897 54.0258 80.803 54.0258C80.5527 54.0258 80.3315 53.9703 80.1392 53.8592C79.9487 53.7466 79.7995 53.5833 79.6918 53.3695C79.5841 53.1541 79.5302 52.8939 79.5302 52.589V50.1579H80.4301V52.4498C80.4301 52.6917 80.4964 52.884 80.629 53.0265C80.7615 53.169 80.9355 53.2403 81.151 53.2403C81.2835 53.2403 81.412 53.208 81.5363 53.1433C81.6606 53.0787 81.7625 52.9826 81.842 52.855C81.9232 52.7257 81.9638 52.5641 81.9638 52.3703ZM84.6889 51.7389V53.9761H83.789V50.1579H84.6491V50.8067H84.6938C84.7817 50.5929 84.9217 50.423 85.1139 50.2971C85.3078 50.1711 85.5473 50.1082 85.8323 50.1082C86.0958 50.1082 86.3254 50.1645 86.5209 50.2772C86.7181 50.3899 86.8706 50.5531 86.9783 50.7669C87.0877 50.9807 87.1415 51.24 87.1399 51.545V53.9761H86.24V51.6842C86.24 51.429 86.1737 51.2293 86.0411 51.0851C85.9102 50.9409 85.7288 50.8688 85.4968 50.8688C85.3393 50.8688 85.1993 50.9036 85.0767 50.9732C84.9557 51.0412 84.8604 51.1398 84.7908 51.269C84.7228 51.3983 84.6889 51.5549 84.6889 51.7389ZM88.0546 53.9761V50.1579H88.9545V53.9761H88.0546ZM88.5071 49.616C88.3645 49.616 88.2419 49.5688 88.1392 49.4743C88.0364 49.3782 87.985 49.263 87.985 49.1288C87.985 48.9929 88.0364 48.8777 88.1392 48.7832C88.2419 48.6871 88.3645 48.6391 88.5071 48.6391C88.6512 48.6391 88.7739 48.6871 88.875 48.7832C88.9777 48.8777 89.0291 48.9929 89.0291 49.1288C89.0291 49.263 88.9777 49.3782 88.875 49.4743C88.7739 49.5688 88.6512 49.616 88.5071 49.616ZM91.7864 50.1579V50.8539H89.5915V50.1579H91.7864ZM90.1334 49.2431H91.0332V52.8276C91.0332 52.9486 91.0515 53.0414 91.0879 53.106C91.1261 53.169 91.1758 53.2121 91.2371 53.2353C91.2984 53.2585 91.3663 53.2701 91.4409 53.2701C91.4973 53.2701 91.5486 53.266 91.595 53.2577C91.6431 53.2494 91.6796 53.2419 91.7044 53.2353L91.856 53.9388C91.808 53.9554 91.7392 53.9736 91.6497 53.9935C91.5619 54.0134 91.4542 54.025 91.3266 54.0283C91.1012 54.0349 90.8982 54.0009 90.7176 53.9264C90.5369 53.8501 90.3936 53.7325 90.2875 53.5734C90.1831 53.4143 90.1317 53.2154 90.1334 52.9768V49.2431ZM93.0983 55.4079C92.9757 55.4079 92.8622 55.3979 92.7578 55.3781C92.655 55.3598 92.573 55.3383 92.5117 55.3134L92.7205 54.6124C92.8514 54.6506 92.9682 54.6688 93.071 54.6671C93.1737 54.6655 93.264 54.6332 93.3419 54.5702C93.4215 54.5089 93.4886 54.4061 93.5433 54.2619L93.6203 54.0556L92.2358 50.1579H93.1903L94.0703 53.0414H94.11L94.9925 50.1579H95.9495L94.4208 54.4384C94.3495 54.6406 94.255 54.8138 94.1374 54.958C94.0197 55.1038 93.8755 55.2148 93.7049 55.2911C93.5358 55.3689 93.3336 55.4079 93.0983 55.4079ZM96.8873 54.0308C96.7365 54.0308 96.6072 53.9777 96.4995 53.8717C96.3918 53.7656 96.3388 53.6363 96.3404 53.4839C96.3388 53.3347 96.3918 53.2071 96.4995 53.1011C96.6072 52.995 96.7365 52.942 96.8873 52.942C97.0331 52.942 97.1599 52.995 97.2676 53.1011C97.377 53.2071 97.4325 53.3347 97.4342 53.4839C97.4325 53.585 97.406 53.677 97.3546 53.7598C97.3049 53.8427 97.2386 53.909 97.1558 53.9587C97.0746 54.0067 96.9851 54.0308 96.8873 54.0308ZM100.029 54.0506C99.6476 54.0506 99.3203 53.967 99.0468 53.7996C98.7751 53.6322 98.5654 53.401 98.4179 53.106C98.2721 52.8094 98.1992 52.468 98.1992 52.0819C98.1992 51.6941 98.2737 51.3519 98.4229 51.0553C98.572 50.757 98.7825 50.525 99.0543 50.3592C99.3277 50.1919 99.6509 50.1082 100.024 50.1082C100.334 50.1082 100.608 50.1653 100.847 50.2797C101.087 50.3924 101.278 50.5523 101.421 50.7595C101.563 50.9649 101.644 51.2052 101.664 51.4803H100.804C100.769 51.2964 100.687 51.1431 100.556 51.0205C100.426 50.8962 100.253 50.834 100.036 50.834C99.8522 50.834 99.6907 50.8837 99.5514 50.9832C99.4122 51.081 99.3037 51.2218 99.2258 51.4058C99.1496 51.5897 99.1115 51.8101 99.1115 52.067C99.1115 52.3272 99.1496 52.5509 99.2258 52.7381C99.302 52.9238 99.4089 53.0671 99.5465 53.1682C99.6857 53.2676 99.8489 53.3173 100.036 53.3173C100.169 53.3173 100.287 53.2925 100.392 53.2428C100.498 53.1914 100.586 53.1176 100.658 53.0215C100.729 52.9254 100.778 52.8086 100.804 52.671H101.664C101.643 52.9412 101.563 53.1806 101.426 53.3894C101.288 53.5966 101.101 53.759 100.864 53.8766C100.627 53.9926 100.349 54.0506 100.029 54.0506ZM104.069 54.0506C103.696 54.0506 103.373 53.9686 103.099 53.8046C102.826 53.6405 102.614 53.411 102.463 53.116C102.314 52.821 102.239 52.4763 102.239 52.0819C102.239 51.6875 102.314 51.342 102.463 51.0453C102.614 50.7487 102.826 50.5183 103.099 50.3543C103.373 50.1902 103.696 50.1082 104.069 50.1082C104.442 50.1082 104.765 50.1902 105.038 50.3543C105.312 50.5183 105.523 50.7487 105.672 51.0453C105.823 51.342 105.898 51.6875 105.898 52.0819C105.898 52.4763 105.823 52.821 105.672 53.116C105.523 53.411 105.312 53.6405 105.038 53.8046C104.765 53.9686 104.442 54.0506 104.069 54.0506ZM104.074 53.3298C104.276 53.3298 104.445 53.2743 104.581 53.1632C104.717 53.0505 104.818 52.8997 104.884 52.7108C104.952 52.5219 104.986 52.3114 104.986 52.0794C104.986 51.8457 104.952 51.6345 104.884 51.4455C104.818 51.255 104.717 51.1033 104.581 50.9906C104.445 50.8779 104.276 50.8216 104.074 50.8216C103.867 50.8216 103.694 50.8779 103.557 50.9906C103.421 51.1033 103.319 51.255 103.251 51.4455C103.185 51.6345 103.152 51.8457 103.152 52.0794C103.152 52.3114 103.185 52.5219 103.251 52.7108C103.319 52.8997 103.421 53.0505 103.557 53.1632C103.694 53.2743 103.867 53.3298 104.074 53.3298ZM106.662 53.9761V50.1579H107.522V50.8067H107.567C107.646 50.5879 107.778 50.4172 107.962 50.2946C108.146 50.1703 108.366 50.1082 108.621 50.1082C108.879 50.1082 109.097 50.1711 109.275 50.2971C109.454 50.4214 109.58 50.5912 109.652 50.8067H109.692C109.777 50.5946 109.919 50.4255 110.12 50.2996C110.322 50.172 110.561 50.1082 110.838 50.1082C111.19 50.1082 111.476 50.2192 111.698 50.4413C111.92 50.6633 112.031 50.9873 112.031 51.4132V53.9761H111.129V51.5524C111.129 51.3154 111.066 51.1423 110.94 51.0329C110.814 50.9219 110.66 50.8663 110.478 50.8663C110.261 50.8663 110.091 50.9343 109.968 51.0702C109.847 51.2044 109.787 51.3792 109.787 51.5947V53.9761H108.904V51.5151C108.904 51.3179 108.845 51.1605 108.725 51.0428C108.608 50.9252 108.453 50.8663 108.263 50.8663C108.134 50.8663 108.016 50.8995 107.91 50.9658C107.804 51.0304 107.719 51.1224 107.656 51.2417C107.593 51.3594 107.562 51.4969 107.562 51.6543V53.9761H106.662Z" fill="#FAFFF7"/>
</svg>
