<svg width="62" height="65" viewBox="0 0 62 65" fill="none" xmlns="http://www.w3.org/2000/svg">
<path d="M42.0354 47.468C47.1805 45.7376 51.609 42.9103 55.0984 38.6951C58.5889 34.4788 60.6043 29.6187 61.3896 24.2112C61.4049 24.5506 61.4398 24.8899 61.4336 25.2292C61.3998 27.3266 61.4367 29.4291 61.2963 31.5193C61.1056 34.3486 60.4967 37.1031 59.4172 39.7417C57.9636 43.2968 55.7637 46.3209 52.9847 48.9554C50.632 51.1861 48.0477 53.1368 45.5669 55.2127C43.773 56.7135 42.0754 58.3106 40.7069 60.2255C39.7422 61.5756 38.9888 63.0292 38.5244 64.6273C38.5152 64.6601 38.4762 64.6847 38.4178 64.7503C38.2917 64.6027 38.1605 64.4674 38.0498 64.3167C36.3368 61.9866 34.8371 59.5346 33.8181 56.8129C33.3414 55.5407 32.9775 54.2327 32.8945 52.8754C32.7346 50.2378 33.5741 47.9682 35.4111 46.0308C37.2553 44.0861 39.5321 42.815 41.8653 41.6053C42.6464 41.2004 43.406 40.7514 44.1984 40.3711C45.774 39.6146 47.2809 38.7473 48.6976 37.7212C49.6315 37.0446 50.426 36.2461 50.9713 35.2189C51.0072 35.1523 51.0636 35.0969 51.122 35.0211C50.633 38.937 47.5065 44.6274 42.0354 47.468Z" fill="#5A7947"/>
<path d="M0.690523 24.3322C1.32097 28.8079 2.88221 32.9094 5.39681 36.6561C7.7884 40.2194 10.9386 42.9811 14.5767 45.18C16.1226 46.1138 17.8161 46.8037 19.5792 47.3153C17.323 45.9457 15.4296 44.1959 13.9073 42.0616C12.3922 39.9365 11.3619 37.5952 10.8678 35.0344C10.9058 35.0139 10.9437 34.9944 10.9816 34.9739C11.0329 35.0426 11.1046 35.1041 11.1333 35.182C11.4624 36.079 12.0959 36.7382 12.8094 37.3317C14.0682 38.3804 15.489 39.1738 16.9334 39.9293C18.7233 40.8663 20.5182 41.792 22.2937 42.7556C23.5721 43.4496 24.7643 44.2799 25.8591 45.2415C28.0272 47.1451 29.1712 49.5305 29.203 52.4255C29.2071 52.8252 29.1128 53.2199 29.0103 53.6207C28.8934 54.0749 28.8534 54.5679 28.7376 55.0323C28.5674 55.712 28.3768 56.3896 28.143 57.0497C27.9585 57.5736 27.7043 58.0738 27.4654 58.5772C27.3076 58.9103 27.1282 59.2332 26.9529 59.5582C26.714 60 26.4906 60.4531 26.2209 60.8765C25.6397 61.7909 25.0328 62.6889 24.4362 63.593C24.3183 63.7714 24.2046 63.9539 24.0744 64.124C23.9503 64.285 23.8068 64.4305 23.5977 64.6684C23.4378 64.3127 23.2984 64.0625 23.2102 63.796C22.5223 61.712 21.2799 59.9744 19.8253 58.3732C18.2107 56.5956 16.3563 55.0815 14.4896 53.5818C12.0426 51.6156 9.58542 49.6638 7.46754 47.3255C4.3143 43.8453 2.20666 39.8381 1.28406 35.2189C0.813535 32.8653 0.53573 30.4952 0.568534 28.0913C0.580835 27.2282 0.569559 26.364 0.589036 25.5009C0.596212 25.1072 0.654644 24.7197 0.690523 24.3322Z" fill="#5A7947"/>
<path d="M45.7553 24.1313C44.5109 24.5978 43.2295 24.8417 41.9122 24.895C38.9507 25.015 36.2577 24.2062 33.7954 22.565C32.1583 21.4732 30.6657 20.2011 29.169 18.934C27.5955 17.6024 26.0055 16.2913 24.1983 15.2805C21.4571 13.748 18.5571 12.8325 15.369 13.054C14.0486 13.1462 12.7806 13.463 11.5965 14.0299C10.4484 14.5793 9.40998 15.3051 8.49251 16.2123C6.89026 17.7951 6.08964 19.7264 6.01584 21.9376C5.95535 23.7377 6.48944 25.424 7.34233 27.0037C8.53454 29.2118 10.3787 30.7443 12.5202 31.9591C13.127 32.3035 13.737 32.6541 14.3797 32.9176C15.166 33.2405 15.9892 33.4763 16.7969 33.834C16.5489 33.834 16.3018 33.8371 16.0537 33.834C14.1675 33.8084 12.3551 33.4373 10.6227 32.6828C7.82926 31.466 5.63142 29.5726 4.22291 26.8581C2.19934 22.9586 2.29673 19.0673 4.5817 15.3113C5.94818 13.0652 7.99225 11.5522 10.3869 10.5076C11.9492 9.82589 13.6006 9.50093 15.2859 9.32153C15.6314 9.28463 15.9769 9.24772 16.3992 9.20364C15.2675 7.41175 14.964 5.57577 15.7001 3.64241C16.2065 2.31079 17.0932 1.28773 18.3766 0.641906C21.0419 -0.699966 24.2095 0.12525 25.8149 2.52709C27.5422 5.10935 27.0942 8.71979 23.8784 10.8346C24.0998 10.9484 24.3049 11.056 24.5109 11.1606C27.0922 12.4697 29.333 14.2164 31.2695 16.3641C32.1234 17.3113 32.9712 18.2667 33.8743 19.1636C36.15 21.423 38.9394 22.7454 42.0106 23.548C43.2397 23.8679 44.5006 23.9304 45.7553 24.1313Z" fill="#5A7947"/>
<path d="M51.6624 30.9801C52.8013 30.0124 53.8695 28.9729 54.7029 27.7253C56.1022 25.629 57.0494 23.3594 56.951 20.7925C56.8454 18.038 55.9207 15.6106 53.7475 13.7889C52.5512 12.7864 51.1591 12.2544 49.5896 12.2308C48.582 12.2154 47.6583 12.4994 46.8095 13.0447C46.1237 13.4855 45.5302 14.036 44.9141 14.565C43.3098 15.9437 41.5353 17.0498 39.5333 17.7623C38.3903 18.1692 37.237 18.5506 35.9997 18.6716C38.7901 17.0837 40.789 14.6849 42.7183 12.1508C42.6189 12.118 42.5215 12.076 42.42 12.0545C40.1115 11.5542 38.4774 9.78588 38.3032 7.43632C38.1699 5.64237 38.8413 4.11188 40.2724 3.00066C40.9408 2.48195 41.725 2.12931 42.6179 2.11599C42.9203 2.11086 43.237 1.94069 43.521 1.99092C44.2765 2.12419 45.0515 2.18262 45.7444 2.59369C47.931 3.89251 48.9571 6.31587 48.135 8.65108C48.0386 8.92478 47.9546 9.20259 47.8685 9.46707C48.4999 9.43529 49.1253 9.3297 49.7373 9.38404C53.8449 9.74795 56.7316 11.8761 58.3605 15.6259C59.5886 18.4512 59.5312 21.344 58.4323 24.2236C57.2288 27.3778 54.9807 29.5408 52.0263 31.0457C51.9576 31.0805 51.8777 31.0939 51.8039 31.1164C51.7557 31.0713 51.7096 31.0252 51.6624 30.9801Z" fill="#5A7947"/>
<path d="M47.6652 34.7761C46.7908 34.3824 45.9123 33.9949 45.0409 33.5951C42.7642 32.5495 40.4864 31.506 38.2147 30.447C33.9697 28.4686 29.7268 26.4829 25.4879 24.4911C25.1937 24.3527 24.9569 24.3486 24.6607 24.4891C21.8642 25.8186 19.0625 27.1369 16.2599 28.4522C14.9908 29.0477 13.7155 29.629 12.3849 30.2441C12.3849 27.6515 12.3849 25.1205 12.3849 22.5547C13.5433 22.5547 14.6699 22.5547 15.8785 22.5547C15.8785 23.4916 15.8785 24.3999 15.8785 25.4455C16.2558 25.2282 16.5254 25.0949 16.7714 24.9288C18.4926 23.7684 20.2107 22.6018 21.9267 21.4342C22.7519 20.8725 23.571 20.3015 24.3972 19.7408C25.0164 19.3205 25.0184 19.3276 25.6315 19.7428C28.9918 22.0186 32.3562 24.2882 35.7124 26.569C36.7447 27.2702 37.7442 28.0196 38.7785 28.7166C40.187 29.6669 41.6191 30.5813 43.0338 31.5234C44.5027 32.5003 45.9625 33.4916 47.4253 34.4767C47.5063 34.5311 47.5791 34.5967 47.656 34.6572C47.6611 34.6982 47.6632 34.7371 47.6652 34.7761Z" fill="#5A7947"/>
<path d="M28.6198 33.139C27.5936 33.139 26.6218 33.139 25.6008 33.139C25.6008 32.1231 25.6008 31.1369 25.6008 30.1446C25.9914 30.0257 27.9309 30.0073 28.6198 30.1262C28.6198 31.1082 28.6198 32.0964 28.6198 33.139Z" fill="#5A7947"/>
<path d="M25.6214 34.1589C26.6045 34.1589 27.5927 34.1589 28.6137 34.1589C28.6137 35.1902 28.6137 36.1805 28.6137 37.1984C27.6173 37.1984 26.6466 37.1984 25.6778 37.1984C25.5343 36.774 25.4984 34.9257 25.6214 34.1589Z" fill="#5A7947"/>
<path d="M21.539 33.1163C21.539 32.1005 21.539 31.1092 21.539 30.08C22.5467 30.08 23.5308 30.08 24.5539 30.08C24.5539 31.0876 24.5539 32.0748 24.5539 33.062C24.1602 33.186 22.355 33.225 21.539 33.1163Z" fill="#5A7947"/>
<path d="M21.5367 37.18C21.5367 36.159 21.5367 35.1872 21.5367 34.1723C22.5413 34.1723 23.5254 34.1723 24.5505 34.1723C24.5505 35.1615 24.5505 36.1487 24.5505 37.18C23.5685 37.18 22.5834 37.18 21.5367 37.18Z" fill="#5A7947"/>
<path d="M51.6624 30.98C51.7085 31.0262 51.7557 31.0713 51.8018 31.1174C51.5425 31.2568 51.2831 31.3952 51.0238 31.5346C51.0022 31.4957 50.9807 31.4567 50.9592 31.4178C51.1939 31.2712 51.4276 31.1256 51.6624 30.98Z" fill="#5A7947"/>
<path d="M47.6653 34.7761C47.6633 34.7371 47.6612 34.6982 47.6592 34.6592C47.8673 34.7853 48.0754 34.9114 48.2824 35.0375C48.2609 35.0713 48.2394 35.1051 48.2179 35.14C48.0344 35.018 47.8499 34.897 47.6653 34.7761Z" fill="#5A7947"/>
</svg>
